<?xml version="1.0" encoding="UTF-8"?><svg id="Layer_1" xmlns="http://www.w3.org/2000/svg" viewBox="0 0 367.78 189.6"><path d="M0,0h35.7c18.34,0,30.8,12.74,30.8,28,.14,19.74-16.66,26.6-16.8,26.6l19.6,33.6h-22.4l-16.1-29.4h-10.5v29.4H0V0ZM35.7,39.2c7.14,0,11.2-4.2,11.2-9.8s-4.06-9.8-11.2-9.8h-15.4v19.6h15.4Z"/><path d="M125.3,69.3c-3.36,10.5-13.44,20.3-30.1,20.3s-32.2-14.7-32.2-33.6,14.7-33.6,32.9-33.6,31.5,13.3,31.5,33.6c0,1.54-.28,2.94-.42,4.2l-.28,2.1h-44.1c1.54,4.9,6.16,9.8,13.3,9.8,3.5,0,6.02-.98,7.56-2.1.98-.56,1.68-1.26,2.24-2.1l19.6,1.4ZM109.2,50.4c-1.54-5.6-6.16-10.5-13.3-10.5s-11.76,4.9-13.3,10.5h26.6Z"/><path d="M120.4,23.8h20.3l14,42,14-42h20.3l-24.5,64.4h-19.6l-24.5-64.4Z"/><path d="M199.85.8c5.6,0,10.5,4.9,10.5,10.5s-4.9,10.5-10.5,10.5-10.5-4.9-10.5-10.5,4.9-10.5,10.5-10.5Z"/><rect x="190.4" y="23.8" width="18.9" height="64.4"/><path d="M273.84,69.3c-3.36,10.5-13.44,20.3-30.1,20.3s-32.2-14.7-32.2-33.6,14.7-33.6,32.9-33.6,31.5,13.3,31.5,33.6c0,1.54-.28,2.94-.42,4.2l-.28,2.1h-44.1c1.54,4.9,6.16,9.8,13.3,9.8,3.5,0,6.02-.98,7.56-2.1.98-.56,1.68-1.26,2.24-2.1l19.6,1.4ZM257.74,50.4c-1.54-5.6-6.16-10.5-13.3-10.5s-11.76,4.9-13.3,10.5h26.6Z"/><path d="M269.78,23.8h19.6l11.2,37.8,11.9-37.8h12.6l11.9,37.8,11.2-37.8h19.6l-21.7,64.4h-16.1l-11.2-35.7-11.2,35.7h-16.1l-21.7-64.4Z"/><path d="M0,100h35.7c18.34,0,30.8,12.74,30.8,28,.14,19.74-16.66,26.6-16.8,26.6l19.6,33.6h-22.4l-16.1-29.4h-10.5v29.4H0v-88.2ZM35.7,139.2c7.14,0,11.2-4.2,11.2-9.8s-4.06-9.8-11.2-9.8h-15.4v19.6h15.4Z"/><path d="M69.3,123.8h18.9v34.3c0,8.4,4.76,13.3,11.9,13.3s11.9-4.9,11.9-13.3v-34.3h18.9v64.4h-14l-2.8-6.3c-1.54,1.26-3.36,2.52-5.32,3.5-3.36,1.82-7.98,3.5-13.58,3.5-15.26,0-25.9-10.5-25.9-27.3v-37.8Z"/><path d="M133.7,123.8h14l2.8,6.3c1.54-1.26,3.22-2.52,5.18-3.5,3.36-1.68,8.12-3.5,13.72-3.5,15.26,0,25.9,10.5,25.9,27.3v37.8h-18.9v-34.3c0-8.4-4.76-13.3-11.9-13.3s-11.9,4.9-11.9,13.3v34.3h-18.9v-64.4Z"/><path d="M198.1,123.8h14l2.8,6.3c1.54-1.26,3.22-2.52,5.18-3.5,3.36-1.68,8.12-3.5,13.72-3.5,15.26,0,25.9,10.5,25.9,27.3v37.8h-18.9v-34.3c0-8.4-4.76-13.3-11.9-13.3s-11.9,4.9-11.9,13.3v34.3h-18.9v-64.4Z"/><path d="M324.1,169.3c-3.36,10.5-13.44,20.3-30.1,20.3s-32.2-14.7-32.2-33.6,14.7-33.6,32.9-33.6,31.5,13.3,31.5,33.6c0,1.54-.28,2.94-.42,4.2l-.28,2.1h-44.1c1.54,4.9,6.16,9.8,13.3,9.8,3.5,0,6.02-.98,7.56-2.1.98-.56,1.68-1.26,2.24-2.1l19.6,1.4ZM308,150.4c-1.54-5.6-6.16-10.5-13.3-10.5s-11.76,4.9-13.3,10.5h26.6Z"/><path d="M328.3,123.8h14l2.8,7c1.12-1.4,2.52-2.66,4.06-3.78,2.66-2.1,6.44-3.92,11.34-3.92,1.68,0,3.08.28,4.06.42l1.54.28v19.6l-1.96-.7c-1.26-.42-2.94-.7-5.04-.7-7.14,0-11.9,4.9-11.9,13.3v32.9h-18.9v-64.4Z"/></svg>